<?xml version="1.0" standalone="no"?>
<!DOCTYPE svg PUBLIC "-//W3C//DTD SVG 20010904//EN"
 "http://www.w3.org/TR/2001/REC-SVG-20010904/DTD/svg10.dtd">
<svg version="1.0" xmlns="http://www.w3.org/2000/svg"
 width="400.000000pt" height="400.000000pt" viewBox="0 0 400.000000 400.000000"
 preserveAspectRatio="xMidYMid meet">
<metadata>
Created by potrace 1.11, written by Peter Selinger 2001-2013
</metadata>
<g transform="translate(0.000000,400.000000) scale(0.100000,-0.100000)"
fill="#000000" stroke="none">
<path d="M0 3264 l0 -735 299 2 c165 1 305 5 312 9 10 7 16 129 9 200 -4 39
16 119 37 154 14 21 23 47 20 57 -3 10 2 24 11 31 18 15 72 130 72 153 0 9 -7
27 -16 40 -9 13 -13 29 -9 35 8 14 14 80 7 80 -3 0 -14 -7 -24 -17 -17 -15
-18 -15 -18 5 0 11 -5 22 -11 24 -12 4 44 94 63 100 7 3 8 10 3 17 -5 10 -22
11 -59 7 l-51 -7 40 25 c22 13 41 29 41 35 1 6 2 15 3 20 0 5 22 22 49 37 26
16 56 34 67 41 11 6 35 19 53 28 42 22 47 32 29 53 -18 21 -11 42 14 42 11 0
22 7 25 15 4 8 16 15 28 15 29 0 69 43 54 58 -9 9 -1 12 32 12 33 0 41 3 32
12 -8 8 -8 19 3 44 7 18 11 35 8 37 -2 3 7 13 20 22 19 12 25 23 22 43 -2 15
-4 30 -4 35 -1 4 -262 7 -581 7 l-580 0 0 -736z"/>
<path d="M2841 3968 c-34 -36 -40 -58 -16 -58 8 0 15 -5 15 -10 0 -7 7 -7 21
0 11 7 23 10 25 7 12 -11 10 -115 -2 -139 -8 -15 -14 -36 -14 -46 0 -26 -36
-67 -44 -50 -5 10 -7 10 -12 1 -8 -18 -25 -16 -18 1 7 20 -23 28 -40 11 -18
-18 -43 -19 -48 -3 -3 8 -13 4 -29 -12 -13 -14 -37 -34 -53 -44 -24 -16 -28
-23 -23 -52 3 -18 1 -36 -4 -40 -14 -8 31 -50 62 -57 18 -5 31 -2 39 9 7 8 19
13 26 10 7 -3 15 2 18 11 4 9 14 13 26 10 11 -3 20 -2 20 3 0 16 55 18 72 3
11 -9 25 -12 39 -8 19 6 21 4 16 -14 -3 -11 -1 -24 5 -27 5 -3 3 -11 -5 -17
-15 -13 -32 -51 -19 -43 14 8 66 -32 68 -51 0 -10 1 -31 2 -46 1 -18 7 -27 15
-24 6 2 22 -6 33 -19 23 -24 61 -33 82 -21 15 10 16 -7 0 -33 -7 -10 -10 -21
-8 -23 3 -3 31 0 62 6 32 6 61 7 65 4 3 -4 0 -19 -7 -34 -7 -16 -13 -32 -11
-37 1 -4 -4 -14 -10 -22 -9 -11 -8 -14 5 -14 22 0 20 -9 -10 -36 l-25 -24 23
-9 c23 -9 23 -9 -7 -21 -16 -6 -42 -12 -56 -12 -21 -1 -25 -5 -22 -19 3 -12 0
-19 -8 -19 -8 0 -5 -6 7 -14 12 -10 21 -11 25 -4 4 6 12 7 19 3 9 -6 9 -10 -1
-16 -11 -8 -10 -12 5 -24 11 -8 28 -15 38 -15 12 0 18 -7 18 -21 0 -20 -4 -21
-56 -16 -71 7 -86 2 -78 -29 3 -13 2 -24 -2 -24 -20 0 -74 41 -129 99 -44 45
-67 61 -87 61 -15 0 -39 11 -54 25 -28 26 -58 32 -69 15 -11 -18 -35 -11 -35
10 0 11 -4 20 -10 20 -5 0 -7 7 -4 15 4 10 0 15 -15 15 -12 0 -21 6 -21 15 0
16 -12 20 -24 8 -3 -4 -38 -8 -77 -9 -68 -1 -103 -14 -80 -28 14 -9 14 -53 1
-61 -5 -3 -10 -19 -10 -34 0 -32 -22 -56 -44 -48 -8 3 -17 -1 -20 -9 -6 -17
-33 -19 -38 -3 -4 12 -77 21 -79 10 -1 -3 -3 -16 -4 -27 -3 -33 -15 -45 -36
-39 -13 5 -30 -5 -59 -36 -22 -23 -40 -43 -40 -45 0 -1 -13 -16 -30 -32 -16
-17 -30 -38 -30 -47 0 -11 -5 -15 -15 -11 -9 3 -15 0 -15 -9 0 -19 -34 -19
-54 0 -22 22 -43 18 -50 -10 -6 -22 -10 -24 -34 -19 -15 4 -31 7 -37 8 -5 0
-14 6 -18 11 -10 12 -63 -48 -82 -92 -8 -18 -20 -33 -28 -33 -16 0 -70 -54
-67 -67 2 -4 17 -18 34 -31 17 -13 30 -30 28 -38 -2 -10 6 -14 27 -14 16 0 32
-4 35 -9 4 -5 29 -12 56 -16 33 -5 50 -12 50 -21 0 -8 9 -14 20 -14 13 0 18
-5 14 -15 -8 -20 5 -19 29 3 14 12 21 13 24 5 5 -14 53 3 66 24 5 8 23 11 55
7 l48 -5 22 45 c22 43 25 45 70 48 43 3 45 4 25 16 -12 7 -54 13 -93 15 -48 1
-70 6 -70 15 0 19 61 52 99 52 32 0 131 -46 131 -61 0 -4 19 -17 42 -29 24
-12 53 -34 66 -48 19 -20 26 -22 32 -11 15 23 48 -18 56 -67 3 -24 10 -44 15
-44 5 0 9 -9 9 -20 0 -11 -4 -20 -10 -20 -5 0 -10 5 -10 10 0 6 -10 15 -22 20
-13 5 -33 17 -45 26 -20 14 -23 14 -23 2 0 -8 9 -23 20 -33 25 -23 16 -37 -16
-25 -14 6 -30 10 -36 10 -20 0 35 -50 68 -62 30 -10 31 -12 15 -28 -9 -10 -23
-20 -31 -23 -11 -4 -9 -7 8 -12 25 -8 27 -16 10 -34 -11 -10 -9 -15 5 -26 18
-13 18 -14 -4 -25 l-22 -12 31 -20 31 -19 -22 -22 -21 -21 30 -12 29 -12 -38
-7 c-42 -8 -42 -17 0 -20 68 -5 78 -7 63 -12 -8 -4 -21 -12 -28 -20 -7 -7 -32
-13 -55 -14 l-42 -1 35 -11 35 -11 -52 -6 c-65 -7 -75 -16 -32 -28 l34 -10
-35 -16 -35 -16 50 5 50 6 -28 -16 c-16 -9 -27 -19 -24 -22 4 -3 94 35 149 64
4 2 5 -2 2 -9 -7 -17 -83 -73 -112 -82 -12 -4 -29 -20 -36 -35 -8 -15 -21 -33
-30 -40 -8 -7 -12 -19 -10 -26 3 -7 0 -23 -6 -35 -15 -28 -4 -39 15 -14 13 17
13 14 0 -18 -8 -21 -15 -44 -15 -53 0 -21 20 -19 21 3 0 11 2 12 6 4 4 -10 8
-10 20 -1 12 11 13 8 6 -17 -4 -16 -7 -41 -6 -56 2 -27 -27 -55 -46 -44 -17
11 -4 -37 14 -50 22 -16 112 -18 150 -4 28 11 67 -1 46 -14 -17 -11 -13 -26 5
-19 9 3 20 0 24 -7 7 -11 12 -11 26 1 13 11 18 11 21 2 3 -7 12 -13 21 -13 20
0 9 -11 -15 -14 -13 -2 -17 -11 -16 -32 2 -23 -6 -36 -39 -62 -54 -43 -81 -49
-107 -23 -12 12 -32 21 -46 21 -18 0 -23 4 -19 15 4 10 0 15 -14 15 -12 0 -24
5 -27 10 -3 6 -13 10 -21 10 -9 0 -22 7 -30 15 -13 13 -18 12 -36 -5 -25 -23
-42 -26 -36 -8 9 26 -18 38 -54 26 -18 -6 -37 -14 -43 -18 -17 -12 -55 -19
-60 -10 -8 13 -98 0 -117 -17 -14 -13 -20 -13 -33 -3 -8 7 -15 9 -15 4 0 -4
-5 -3 -11 3 -7 7 -9 19 -5 29 6 16 8 15 27 -1 18 -17 21 -17 35 -3 13 13 14
19 2 37 -7 11 -19 21 -26 21 -8 0 -16 9 -19 20 -3 11 -13 20 -23 20 -10 0 -20
4 -22 10 -1 5 -19 12 -40 14 -32 4 -37 2 -48 -25 -7 -16 -16 -31 -20 -34 -11
-7 14 81 28 98 17 20 8 37 -16 31 -18 -5 -52 40 -52 68 0 19 -35 35 -89 42
-26 2 -48 11 -53 20 -5 9 -16 16 -23 16 -24 0 -17 -30 10 -42 14 -6 25 -17 25
-24 0 -7 6 -14 13 -17 8 -3 9 -8 1 -16 -8 -8 -31 8 -87 62 -94 90 -128 119
-132 115 -1 -2 0 -19 2 -40 4 -29 10 -38 30 -43 20 -5 23 -8 13 -20 -7 -8 -9
-15 -5 -15 4 0 2 -6 -5 -14 -14 -17 8 -72 41 -102 23 -21 24 -34 3 -34 -27 0
-9 -24 24 -34 24 -7 32 -15 32 -32 0 -17 6 -24 19 -24 15 0 20 -10 25 -45 4
-25 3 -53 -3 -63 -6 -11 -8 -22 -5 -25 6 -6 -50 -47 -65 -47 -6 0 -11 -7 -11
-15 0 -8 -6 -15 -12 -16 -7 0 1 -5 19 -10 20 -6 39 -22 52 -45 22 -36 41 -38
41 -3 0 18 1 18 21 -2 16 -16 23 -18 35 -8 8 6 14 18 14 26 0 8 5 11 11 7 6
-3 9 -24 7 -45 -3 -31 0 -39 13 -39 9 0 22 7 29 15 10 12 28 15 69 13 51 -3
56 -5 59 -28 3 -20 1 -22 -10 -12 -12 10 -14 6 -10 -20 3 -21 1 -29 -7 -24 -6
4 -11 14 -11 21 0 8 -11 21 -24 30 -25 16 -53 11 -71 -13 -9 -12 -23 -10 -89
9 -64 19 -80 27 -88 48 -6 15 -12 21 -15 14 -8 -22 -36 -15 -30 7 8 29 -29 26
-49 -5 -13 -21 -14 -29 -3 -59 10 -28 10 -39 1 -48 -7 -7 -12 -28 -12 -48 0
-41 27 -76 65 -86 14 -3 25 -10 25 -15 0 -15 37 -10 50 6 11 13 7 15 -25 15
-28 0 -38 5 -42 20 -3 11 -11 20 -18 20 -18 0 -30 39 -16 53 8 8 11 5 11 -11
0 -14 6 -22 18 -22 9 0 23 -9 30 -20 7 -11 21 -20 32 -20 54 0 114 -26 143
-62 35 -44 53 -53 60 -29 3 14 0 17 -13 14 -10 -3 -20 0 -24 5 -3 5 15 15 40
22 37 11 45 17 41 32 -3 10 -1 18 4 18 13 0 11 -48 -2 -52 -5 -2 -11 -18 -11
-36 -1 -19 -8 -37 -17 -42 -14 -8 -14 -9 2 -15 31 -12 75 14 88 52 10 30 14
34 36 28 25 -6 113 -60 146 -90 23 -20 11 -36 -27 -38 -17 -1 -26 -8 -26 -19
0 -19 -34 -33 -51 -22 -7 4 -20 -4 -30 -17 -15 -19 -21 -21 -28 -10 -5 7 -24
15 -42 17 -19 2 -53 5 -75 8 -23 2 -53 11 -68 21 -29 19 -34 10 -10 -23 8 -12
14 -23 12 -23 -2 -1 -19 -2 -38 -3 -76 -5 -79 -8 -106 -119 -3 -15 -10 -30
-15 -33 -5 -3 -9 -14 -9 -25 0 -19 -11 -25 -23 -12 -4 3 -2 12 4 20 9 10 8 13
-4 13 -15 0 -32 28 -22 38 3 3 5 0 5 -6 0 -7 7 -12 15 -12 21 0 21 66 -1 74
-26 10 -32 7 -36 -16 -2 -15 -9 -22 -21 -21 -15 1 -17 -4 -12 -25 4 -15 12
-34 19 -42 20 -23 27 -50 13 -50 -6 0 3 -10 20 -23 37 -25 49 -47 28 -47 -20
0 -19 -13 4 -60 11 -22 15 -40 10 -40 -6 0 -7 -4 -4 -10 3 -5 15 -10 25 -10
22 0 60 -45 60 -71 0 -18 12 -19 225 -19 140 0 225 4 225 10 0 6 9 6 26 0 14
-6 82 -10 150 -10 124 0 125 0 119 22 -4 11 -7 38 -7 60 1 21 -3 38 -8 38 -5
0 -5 13 0 29 4 15 4 35 -1 42 -22 35 -11 49 38 49 l46 0 -20 -22 c-27 -29 -41
-72 -22 -65 8 2 13 10 12 16 -2 6 3 11 11 11 7 0 17 8 20 17 10 28 36 69 36
58 0 -5 6 1 13 15 7 14 21 25 32 25 16 0 20 -7 19 -35 -1 -19 -4 -48 -8 -65
-6 -26 -2 -35 35 -73 29 -31 38 -47 31 -54 -13 -13 -42 6 -42 27 0 8 -14 20
-31 29 -29 14 -30 14 -18 -1 12 -15 12 -16 -6 -9 -33 13 -47 12 -50 -4 -2 -8
-6 -23 -11 -34 -6 -16 -4 -17 14 -7 11 6 22 16 25 23 3 8 7 6 12 -7 3 -11 11
-28 16 -38 7 -13 6 -23 -2 -33 -10 -12 88 -14 715 -14 l726 0 0 1239 0 1239
-31 6 c-17 3 -40 1 -51 -5 -14 -8 -23 -8 -31 0 -14 14 -67 15 -67 1 0 -5 -18
-9 -40 -8 -22 1 -40 6 -40 11 0 6 -11 0 -25 -13 -22 -20 -25 -21 -25 -6 0 14
-7 17 -37 14 -28 -2 -37 1 -35 11 2 8 -3 11 -11 8 -18 -7 -37 11 -37 35 0 9
-17 44 -38 77 -39 59 -39 59 -30 127 11 92 2 568 -13 669 -6 44 -12 94 -13
110 0 17 -5 36 -9 43 -5 7 -11 34 -13 59 -6 58 -26 91 -65 105 -21 7 -29 16
-29 34 0 13 5 24 10 24 6 0 10 5 10 12 0 14 89 99 148 139 23 17 42 34 42 38
0 4 10 13 23 19 21 10 21 11 -8 11 -24 1 -41 -9 -70 -40 -22 -22 -75 -70 -118
-106 l-78 -65 -86 41 -87 42 47 44 c26 23 59 52 74 64 l28 20 -27 1 c-18 0
-46 -17 -90 -55 -46 -41 -68 -53 -83 -49 -39 12 -38 23 6 64 l44 40 -137 0
-137 0 -30 -32z m-66 -326 c-3 -3 -11 0 -18 7 -9 10 -8 11 6 5 10 -3 15 -9 12
-12z m-129 -124 c-10 -6 -20 -7 -24 -3 -9 8 20 25 31 18 5 -3 2 -10 -7 -15z
m1009 -1068 c3 -5 1 -10 -4 -10 -6 0 -11 5 -11 10 0 6 2 10 4 10 3 0 8 -4 11
-10z m105 -20 c0 -5 -4 -10 -10 -10 -5 0 -10 5 -10 10 0 6 5 10 10 10 6 0 10
-4 10 -10z m50 -19 c0 -5 -7 -12 -16 -15 -14 -5 -15 -4 -4 9 14 17 20 19 20 6z
m-100 -41 c-20 -13 -43 -13 -35 0 3 6 16 10 28 10 18 0 19 -2 7 -10z m-864
-175 c18 -14 38 -25 45 -25 23 0 -4 -16 -51 -30 -50 -16 -90 -38 -90 -51 0 -5
12 -4 26 1 34 13 57 13 48 -1 -3 -6 0 -15 7 -20 10 -6 4 -12 -23 -24 -50 -20
-71 -19 -86 5 -7 12 -18 17 -28 13 -15 -5 -16 0 -12 47 6 58 18 73 82 97 43
16 45 16 82 -12z m44 -176 c0 -4 -11 -14 -24 -22 -13 -9 -30 -22 -37 -29 -16
-14 -56 -38 -64 -38 -3 0 -1 10 6 21 8 17 8 23 -1 29 -15 9 -5 29 21 38 24 9
99 10 99 1z m-360 -524 c0 -28 1 -30 23 -42 12 -7 16 -12 10 -13 -7 0 -13 -6
-13 -12 -1 -18 -31 -53 -54 -61 -17 -7 -18 -3 -14 40 3 27 10 60 17 76 11 29
31 37 31 12z m50 -102 c0 -12 -45 -73 -54 -73 -10 0 2 50 16 67 11 14 38 18
38 6z m-815 -93 c3 -6 -1 -7 -9 -4 -18 7 -21 14 -7 14 6 0 13 -4 16 -10z m947
-40 c-3 -3 -7 1 -9 8 -3 6 -8 10 -13 7 -4 -3 -6 4 -3 16 5 20 6 20 18 -3 6
-13 10 -25 7 -28z m-52 20 c0 -5 -4 -10 -10 -10 -5 0 -10 5 -10 10 0 6 5 10
10 10 6 0 10 -4 10 -10z m-846 -46 c4 -10 1 -14 -6 -12 -15 5 -23 28 -10 28 5
0 13 -7 16 -16z m-143 -121 c-9 -17 -10 -17 -17 0 -3 10 -1 30 7 45 l13 27 4
-27 c2 -15 -1 -35 -7 -45z m46 45 c-3 -8 -6 -5 -6 6 -1 11 2 17 5 13 3 -3 4
-12 1 -19z m179 -40 c16 -30 24 -118 12 -118 -9 0 -9 1 -13 46 -1 17 -14 51
-29 76 -14 25 -26 48 -26 53 0 14 41 -28 56 -57z m884 5 c-16 -50 -64 -135
-90 -158 -29 -27 -25 -13 20 61 22 36 40 67 40 69 0 1 7 19 16 40 19 47 30 39
14 -12z m-65 -24 c-30 -52 -72 -105 -79 -99 -4 5 97 150 102 146 1 -2 -9 -23
-23 -47z m-994 -64 c-1 -15 -24 -12 -29 3 -3 9 2 13 12 10 10 -1 17 -7 17 -13z
m220 -98 c-13 -13 -23 9 -15 35 l7 23 9 -24 c5 -15 5 -28 -1 -34z m-388 -1 c4
-10 1 -13 -9 -9 -7 3 -14 9 -14 14 0 14 17 10 23 -5z m58 -29 c-13 -13 -31 1
-31 25 0 21 1 21 20 3 13 -12 17 -22 11 -28z m42 -45 c-16 -2 -23 -10 -23 -25
0 -16 -3 -19 -9 -8 -5 7 -14 10 -20 7 -6 -4 -11 -3 -11 3 0 18 41 39 63 33
l22 -7 -22 -3z m219 -7 c18 -24 18 -24 -13 -23 -21 1 -27 4 -19 12 18 18 11
27 -15 20 -14 -3 -25 -2 -25 3 0 21 55 11 72 -12z m-119 -33 c-3 -14 -13 -22
-26 -22 -20 0 -20 1 3 25 27 29 32 28 23 -3z m47 -3 c0 -5 -5 -7 -10 -4 -7 4
-9 -2 -4 -19 4 -16 2 -26 -4 -26 -8 0 -10 42 -3 58 3 7 21 0 21 -9z m797 -410
c-4 -16 -3 -18 8 -9 11 9 15 4 20 -24 4 -19 13 -40 21 -47 8 -6 14 -20 14 -29
0 -10 6 -20 13 -23 6 -2 9 -8 5 -12 -13 -14 -58 13 -69 42 -9 25 -48 61 -59
55 -3 -1 -5 -8 -5 -16 0 -17 -59 -73 -87 -81 -18 -6 -19 -4 -13 24 9 41 34 91
49 97 6 2 22 5 36 6 14 2 31 11 38 21 18 23 36 22 29 -4z m-537 -159 c-20 -13
-33 -13 -25 0 3 6 14 10 23 10 15 0 15 -2 2 -10z m114 -33 c11 -8 17 -19 15
-25 -2 -6 -17 0 -34 14 -32 25 -14 35 19 11z m465 -57 c15 -22 15 -23 -6 -12
-11 6 -23 19 -27 28 -9 23 14 12 33 -16z m-261 -2 c18 -18 14 -38 -8 -38 -15
0 -20 7 -20 25 0 27 9 32 28 13z m-359 -68 c19 0 12 -18 -11 -26 -28 -9 -54
22 -36 44 10 12 14 12 24 -2 6 -9 16 -16 23 -16z m171 20 c0 -5 -4 -10 -9 -10
-5 0 -17 -3 -25 -6 -12 -5 -15 -2 -10 10 7 17 44 22 44 6z"/>
<path d="M3815 3990 c3 -5 8 -10 11 -10 2 0 4 5 4 10 0 6 -5 10 -11 10 -5 0
-7 -4 -4 -10z"/>
<path d="M3790 3953 c0 -12 -3 -28 -6 -37 -3 -9 -1 -16 5 -16 6 0 11 6 11 14
0 8 7 16 15 20 8 3 15 11 14 18 0 10 -2 10 -6 0 -4 -10 -8 -9 -19 5 -13 17
-13 17 -14 -4z"/>
<path d="M2720 3800 c-9 -6 -10 -10 -3 -10 6 0 15 5 18 10 8 12 4 12 -15 0z"/>
<path d="M1091 2734 c0 -11 3 -14 6 -6 3 7 2 16 -1 19 -3 4 -6 -2 -5 -13z"/>
<path d="M1138 2674 c-5 -4 -8 -20 -8 -35 0 -15 -4 -38 -9 -52 -14 -37 38
-207 72 -235 21 -18 32 156 13 217 l-13 45 -6 -33 c-4 -19 -7 -48 -7 -65 -1
-63 -24 6 -30 87 -3 44 -8 75 -12 71z"/>
<path d="M886 2490 c7 -89 24 -130 23 -55 0 28 -7 68 -15 90 -13 39 -13 39 -8
-35z"/>
<path d="M1092 2365 c0 -5 6 -26 13 -45 7 -19 14 -28 14 -20 0 8 -6 29 -14 45
-7 17 -13 26 -13 20z"/>
<path d="M1180 2314 c0 -5 7 -18 15 -28 12 -16 15 -17 15 -4 0 8 -7 21 -15 28
-8 7 -15 9 -15 4z"/>
<path d="M1166 2220 c8 -49 33 -115 67 -180 85 -162 45 -24 -48 165 -24 47
-25 48 -19 15z"/>
<path d="M1145 2080 c-8 -12 12 -77 26 -86 6 -3 3 11 -5 31 -18 43 -20 59 -6
50 6 -3 10 -1 10 4 0 14 -17 14 -25 1z"/>
<path d="M1175 2038 c3 -13 10 -39 15 -58 11 -49 33 -100 42 -100 4 0 8 -5 8
-10 0 -14 -21 -8 -45 13 -18 16 -20 17 -23 2 -2 -9 3 -27 12 -40 9 -13 16 -31
16 -39 0 -46 148 -258 158 -226 2 6 -4 20 -14 31 -9 10 -14 19 -10 19 4 0 0 7
-8 16 -9 8 -16 24 -16 35 0 10 -6 19 -12 19 -9 0 -9 3 1 9 23 14 1 77 -25 74
-27 -3 -63 55 -43 68 9 6 18 3 25 -7 9 -12 11 -5 9 33 -2 38 -7 50 -24 58 -13
6 -21 19 -21 35 0 24 -34 90 -46 90 -3 0 -3 -10 1 -22z m111 -277 c-4 -5 -1
-12 4 -14 6 -3 5 -4 -2 -3 -15 3 -23 26 -8 26 6 0 9 -4 6 -9z"/>
<path d="M1374 1962 c-13 -8 -15 -42 -2 -42 5 0 17 -19 27 -43 21 -48 45 -72
62 -61 7 4 9 3 5 -4 -3 -6 -2 -13 3 -16 5 -3 11 17 13 45 3 48 2 51 -25 56
-20 4 -32 16 -42 39 -14 35 -22 39 -41 26z"/>
<path d="M1495 1830 c-3 -5 -1 -10 5 -10 7 0 10 -7 6 -15 -3 -8 -1 -15 3 -15
9 0 21 24 21 41 0 12 -27 12 -35 -1z"/>
<path d="M1320 1710 c0 -11 4 -20 9 -20 5 0 7 9 4 20 -3 11 -7 20 -9 20 -2 0
-4 -9 -4 -20z"/>
<path d="M1390 1714 c0 -13 18 -39 24 -34 2 3 -2 14 -10 24 -8 11 -14 16 -14
10z"/>
<path d="M2399 1660 c-21 -17 -22 -19 -6 -20 23 0 57 18 57 30 0 16 -26 11
-51 -10z"/>
<path d="M1490 1279 c13 -6 20 -13 15 -17 -17 -12 -14 -76 4 -89 13 -9 20 -8
33 4 19 17 15 53 -7 65 -8 5 -15 18 -15 28 0 15 -7 20 -27 19 l-28 0 25 -10z"/>
<path d="M2410 1240 c6 -11 20 -25 33 -31 18 -10 17 -6 -7 20 -34 36 -41 39
-26 11z"/>
<path d="M2583 1223 c-15 -5 -17 -23 -4 -23 5 0 11 7 15 15 3 8 4 15 3 14 -1
0 -8 -3 -14 -6z"/>
<path d="M2621 1158 c-25 -17 -52 -27 -62 -25 -20 6 -23 -1 -11 -21 11 -17 47
-3 92 36 47 41 35 47 -19 10z"/>
<path d="M1931 624 c0 -11 3 -14 6 -6 3 7 2 16 -1 19 -3 4 -6 -2 -5 -13z"/>
<path d="M1520 488 c0 -19 18 -43 25 -36 9 9 -4 48 -16 48 -5 0 -9 -6 -9 -12z"/>
<path d="M170 270 c0 -5 7 -10 16 -10 8 0 12 5 9 10 -3 6 -10 10 -16 10 -5 0
-9 -4 -9 -10z"/>
<path d="M2541 194 c0 -11 3 -14 6 -6 3 7 2 16 -1 19 -3 4 -6 -2 -5 -13z"/>
<path d="M2481 144 c0 -11 3 -14 6 -6 3 7 2 16 -1 19 -3 4 -6 -2 -5 -13z"/>
<path d="M485 140 c-3 -5 1 -10 9 -10 8 0 18 5 21 10 3 6 -1 10 -9 10 -8 0
-18 -4 -21 -10z"/>
</g>
</svg>
